<?xml version="1.0" encoding="UTF-8"?><svg id="Capa_1" xmlns="http://www.w3.org/2000/svg" xmlns:xlink="http://www.w3.org/1999/xlink" viewBox="0 0 500 500"><defs><style>.cls-1{fill:url(#linear-gradient);}.cls-2{fill:#ff9305;}</style><linearGradient id="linear-gradient" x1="87.96" y1="244" x2="415.23" y2="244" gradientTransform="matrix(1, 0, 0, 1, 0, 0)" gradientUnits="userSpaceOnUse"><stop offset="0" stop-color="#045cb8"/><stop offset="1" stop-color="#047adb"/></linearGradient></defs><path class="cls-2" d="M109.65,262.9c.66,.09,1.34,.09,2.01,.14h37.63c.67-.05,1.34-.05,2.01-.14,1.33-.18,2.63-.55,3.87-1.08,6.41-2.78,9.91-10.01,8.56-16.52-1.11-5.34-5.29-9.75-10.46-11.2-.65-.18-1.31-.27-1.97-.41-.67-.05-1.34-.09-2.01-.14h-37.63c-1.78,.12-2.25,.06-3.98,.55-1.29,.36-2.53,.9-3.68,1.6-5.22,3.18-8,9.69-6.77,15.59,1.25,6.02,6.45,10.78,12.43,11.6Z"/><path class="cls-2" d="M23.76,144.97c.66,.09,1.34,.09,2.01,.14H63.4c.67-.05,1.34-.05,2.01-.14,1.33-.18,2.63-.55,3.87-1.08,6.41-2.78,9.91-10.01,8.56-16.52-1.11-5.34-5.29-9.75-10.46-11.2-.65-.18-1.31-.27-1.97-.41-.67-.05-1.34-.09-2.01-.14H25.77c-1.78,.12-2.25,.06-3.98,.55-1.29,.36-2.53,.9-3.68,1.6-5.22,3.18-8,9.69-6.77,15.59,1.25,6.02,6.45,10.78,12.43,11.6Z"/><path class="cls-2" d="M56.79,234.1c-.65-.18-1.31-.27-1.97-.41-.67-.05-1.34-.09-2.01-.14h-20.34c-1.78,.12-2.25,.06-3.98,.55-1.29,.36-2.53,.9-3.68,1.6-5.22,3.18-8,9.69-6.77,15.59,1.25,6.02,6.45,10.78,12.43,11.6,.66,.09,1.34,.09,2.01,.14h20.34c.67-.05,1.34-.05,2.01-.14,1.33-.18,2.63-.55,3.87-1.08,6.41-2.78,9.91-10.01,8.56-16.52-1.11-5.34-5.29-9.75-10.46-11.2Z"/><path class="cls-2" d="M130.36,343.44c-.65-.18-1.31-.27-1.97-.41l-2.01-.14h-20.34c-1.78,.12-2.25,.06-3.98,.55-1.29,.36-2.53,.9-3.68,1.6-5.22,3.18-8,9.69-6.77,15.59,1.25,6.02,6.45,10.78,12.43,11.6,.66,.09,1.34,.09,2.01,.14h20.34c.67-.05,1.34-.05,2.01-.14,1.33-.18,2.63-.55,3.87-1.08,6.41-2.78,9.91-10.01,8.56-16.52-1.11-5.34-5.29-9.75-10.46-11.2Z"/><path class="cls-1" d="M487.98,185.27c0-.12-.01-.24-.02-.36-.02-.36-.04-.73-.09-1.09-.34-2.27-1.38-4.42-2.94-6.11-.81-.87-1.22-1.16-1.94-1.64-.17-.12-.34-.24-.52-.35-.07-.05-.14-.1-.22-.15l-101.23-58.45c-.52-.25-1.02-.54-1.55-.75-1.43-.56-1.84-.54-3.34-.76-.52,0-1.03,0-1.55,.03-.13,0-.26-.02-.39-.03H126.38c-1.78,.12-2.25,.06-3.98,.55-1.29,.36-2.53,.9-3.68,1.6-5.22,3.18-8,9.69-6.77,15.59,1.25,6.02,6.45,10.78,12.43,11.6,.66,.09,1.34,.09,2.01,.14h68.47c.68,.06,1.78,.17,2.46,.23,.5,.09,1.01,.18,1.5,.32,5.16,1.45,9.35,5.86,10.46,11.2,1.35,6.51-2.15,13.74-8.56,16.52-1.23,.54-2.53,.9-3.87,1.08-.66,.09-1.34,.09-2.01,.14H25.77c-1.78,.12-2.25,.06-3.98,.55-1.29,.36-2.53,.9-3.68,1.6-5.22,3.18-8,9.69-6.77,15.59,1.25,6.02,6.45,10.78,12.43,11.6,.66,.09,1.34,.09,2.01,.14H229.3c.68,.06,1.78,.17,2.46,.23,.5,.09,1.01,.18,1.5,.32,5.16,1.45,9.35,5.86,10.46,11.2,1.35,6.51-2.15,13.74-8.56,16.52-1.23,.54-2.53,.9-3.87,1.08-.66,.09-1.34,.09-2.01,.14h-30.24c-1.78,.12-2.25,.06-3.98,.55-1.29,.36-2.53,.9-3.68,1.6-5.22,3.18-8,9.69-6.77,15.59,1.25,6.02,6.45,10.78,12.43,11.6,.66,.09,1.34,.09,2.01,.14h74.62c6.55,0,11.87-5.31,11.87-11.87v-41.86c0-1.72,1.86-2.79,3.35-1.93l52.23,30.15c14.03,8.1,22.67,23.06,22.67,39.26v26.38c0,16.8-18.18,27.3-32.73,18.9l-42.88-24.81c-1.46-.85-2.54-2.26-2.88-3.91-1.11-5.4-5.89-9.42-11.63-9.42H87.13c-1.78,.12-2.25,.06-3.98,.55-1.29,.36-2.53,.9-3.68,1.6-5.22,3.18-8,9.69-6.77,15.59,1.25,6.02,6.45,10.78,12.43,11.6,.66,.09,1.34,.09,2.01,.14h125.84c.68,.06,1.78,.17,2.46,.23,.5,.09,1.01,.18,1.5,.32,5.16,1.45,9.35,5.86,10.46,11.2,1.35,6.51-2.15,13.74-8.56,16.52-1.23,.54-2.53,.9-3.87,1.08-.66,.09-1.34,.09-2.01,.14h-37.13c-1.78,.12-2.25,.06-3.98,.55-1.29,.36-2.53,.9-3.68,1.6-5.22,3.18-8,9.69-6.77,15.59,1.25,6.02,6.45,10.78,12.43,11.6,.66,.09,1.34,.09,2.01,.14h198.72c.08,0,.16,0,.23-.01,.18,0,.35,.01,.53,.01,.27,0,.55,0,.82-.03,.3-.02,.61-.06,.91-.11,.83-.13,1.65-.35,2.43-.66,.28-.11,.56-.25,.83-.38,.04-.02,.08-.03,.11-.04,.89-.39,1.72-.86,2.49-1.4l99.35-57.36c.47-.32,.97-.61,1.42-.97,1.8-1.43,3.14-3.4,3.82-5.6,.45-1.47,.4-1.87,.51-3.39v-116.89c0-.09-.01-.18-.02-.26Zm-108.8-42.65l71.35,41.19c1.33,.77,1.33,2.68,0,3.45l-14,8.08c-2.4,1.38-5.35,1.38-7.74,0l-71.01-41c-1.49-.86-1.49-3.02,0-3.88l13.58-7.84c2.42-1.4,5.4-1.4,7.82,0Zm-7.78,85.85l-71.01-41c-1.49-.86-1.49-3.02,0-3.88l13.58-7.84c2.42-1.4,5.4-1.4,7.82,0l71.34,41.19c1.33,.77,1.33,2.68,0,3.45l-14,8.08c-2.4,1.38-5.35,1.38-7.74,0Zm93.61,64.26c0,1.89-1.01,3.64-2.65,4.59l-67.65,39.06c-3.53,2.04-7.94-.51-7.94-4.59v-78.11c0-1.89,1.01-3.64,2.65-4.59l18.22-10.52c.01,13.55,.03,32.85,.04,42.53,0,2.69,2.91,4.36,5.24,3.03l28.4-16.17c1.75-1,2.84-2.86,2.84-4.88v-45.59l12.91-7.46c3.53-2.04,7.94,.51,7.94,4.59v78.11Z"/></svg>