<?xml version="1.0" encoding="UTF-8"?><svg id="Capa_1" xmlns="http://www.w3.org/2000/svg" viewBox="0 0 500 500"><defs><style>.cls-1{fill:#fff;}.cls-2{fill:#ff9305;}</style></defs><path class="cls-2" d="M115.36,267.87c.64,.09,1.29,.09,1.93,.13h36.27c.65-.04,1.29-.04,1.93-.13,1.28-.18,2.54-.53,3.73-1.04,6.18-2.68,9.55-9.65,8.25-15.92-1.07-5.15-5.1-9.4-10.08-10.79-.62-.17-1.27-.26-1.9-.4-.64-.04-1.29-.09-1.93-.13h-36.27c-1.71,.12-2.17,.06-3.83,.53-1.25,.35-2.44,.87-3.55,1.54-5.03,3.06-7.71,9.34-6.53,15.03,1.21,5.81,6.22,10.39,11.98,11.18Z"/><path class="cls-2" d="M32.58,154.21c.64,.09,1.29,.09,1.93,.13h36.27c.65-.04,1.29-.04,1.93-.13,1.28-.18,2.54-.53,3.72-1.04,6.18-2.68,9.55-9.65,8.25-15.92-1.07-5.15-5.1-9.4-10.08-10.79-.62-.17-1.27-.26-1.9-.4-.65-.04-1.29-.09-1.93-.13H34.51c-1.71,.12-2.17,.06-3.83,.53-1.25,.35-2.44,.87-3.55,1.54-5.03,3.06-7.71,9.34-6.53,15.03,1.21,5.81,6.22,10.39,11.98,11.18Z"/><path class="cls-2" d="M64.41,240.12c-.62-.17-1.27-.26-1.9-.4-.65-.04-1.29-.09-1.93-.13h-19.61c-1.71,.12-2.17,.06-3.83,.53-1.25,.35-2.44,.87-3.55,1.54-5.03,3.06-7.71,9.34-6.53,15.03,1.21,5.81,6.22,10.39,11.98,11.18,.64,.09,1.29,.09,1.93,.13h19.61c.65-.04,1.29-.04,1.93-.13,1.28-.18,2.54-.53,3.73-1.04,6.18-2.68,9.55-9.65,8.25-15.92-1.07-5.15-5.1-9.4-10.08-10.79Z"/><path class="cls-2" d="M135.32,345.49c-.62-.17-1.27-.26-1.9-.4-.65-.04-1.29-.09-1.93-.13h-19.61c-1.71,.12-2.17,.06-3.83,.53-1.25,.35-2.44,.87-3.55,1.54-5.03,3.06-7.71,9.34-6.53,15.03,1.21,5.81,6.22,10.39,11.98,11.18,.64,.09,1.29,.09,1.93,.13h19.61c.64-.04,1.29-.04,1.93-.13,1.28-.18,2.54-.53,3.72-1.04,6.18-2.68,9.55-9.65,8.25-15.92-1.07-5.15-5.1-9.4-10.08-10.79Z"/><path class="cls-1" d="M479.98,193.06c0-.12-.01-.23-.02-.35-.02-.35-.04-.7-.09-1.05-.33-2.19-1.33-4.26-2.83-5.89-.78-.84-1.17-1.12-1.87-1.58-.16-.12-.33-.23-.5-.34-.07-.04-.14-.09-.21-.14l-97.57-56.33c-.5-.24-.98-.52-1.49-.72-1.38-.54-1.77-.52-3.22-.73-.5,0-.99,0-1.49,.03-.13,0-.25-.02-.38-.03H131.48c-1.71,.12-2.17,.06-3.83,.53-1.25,.35-2.44,.87-3.55,1.54-5.03,3.06-7.71,9.34-6.53,15.03,1.21,5.81,6.22,10.39,11.98,11.18,.64,.09,1.29,.09,1.93,.13h65.98c.65,.06,1.71,.16,2.37,.22,.48,.09,.97,.17,1.45,.31,4.97,1.39,9.01,5.65,10.08,10.79,1.3,6.27-2.07,13.24-8.25,15.92-1.19,.52-2.44,.87-3.73,1.04-.64,.09-1.29,.09-1.93,.13H34.51c-1.71,.12-2.17,.06-3.83,.53-1.25,.35-2.44,.87-3.55,1.54-5.03,3.06-7.71,9.34-6.53,15.03,1.21,5.81,6.22,10.39,11.98,11.18,.64,.09,1.29,.09,1.93,.13H230.68c.65,.06,1.71,.16,2.37,.22,.49,.09,.97,.17,1.45,.31,4.97,1.39,9.01,5.65,10.08,10.79,1.3,6.27-2.07,13.24-8.25,15.92-1.19,.52-2.44,.87-3.73,1.04-.64,.09-1.29,.09-1.93,.13h-29.14c-1.71,.12-2.17,.06-3.83,.53-1.25,.35-2.44,.87-3.55,1.54-5.03,3.06-7.71,9.34-6.53,15.03,1.21,5.81,6.22,10.39,11.98,11.18,.64,.09,1.29,.09,1.93,.13h71.92c6.32,0,11.44-5.12,11.44-11.44v-40.34c0-1.66,1.79-2.69,3.23-1.86l50.34,29.06c13.52,7.8,21.84,22.23,21.84,37.84v25.42c0,16.19-17.52,26.31-31.54,18.21l-41.32-23.91c-1.41-.82-2.44-2.18-2.77-3.77-1.07-5.2-5.68-9.08-11.21-9.08H93.65c-1.71,.12-2.17,.06-3.83,.53-1.25,.35-2.44,.87-3.55,1.54-5.03,3.06-7.71,9.34-6.53,15.03,1.21,5.81,6.22,10.39,11.98,11.18,.64,.09,1.29,.09,1.93,.13h121.28c.65,.06,1.71,.16,2.37,.22,.48,.09,.97,.17,1.45,.31,4.97,1.39,9.01,5.64,10.08,10.79,1.3,6.27-2.07,13.24-8.25,15.92-1.19,.52-2.44,.87-3.73,1.04-.64,.09-1.29,.09-1.93,.13h-35.78c-1.71,.12-2.17,.06-3.83,.53-1.25,.35-2.44,.87-3.55,1.54-5.03,3.06-7.71,9.34-6.53,15.03,1.21,5.81,6.22,10.39,11.98,11.18,.64,.09,1.29,.09,1.93,.13h191.52c.07,0,.15,0,.22-.01,.17,0,.34,.01,.51,.01,.26,0,.53,0,.79-.03,.29-.02,.58-.06,.87-.1,.8-.12,1.59-.33,2.35-.63,.27-.11,.54-.24,.8-.37,.04-.01,.07-.03,.11-.04,.86-.37,1.65-.83,2.4-1.35l95.75-55.28c.46-.31,.94-.59,1.37-.93,1.73-1.38,3.03-3.28,3.68-5.4,.44-1.41,.38-1.8,.49-3.27v-112.66c0-.08-.01-.17-.02-.25Zm-104.86-41.1l68.76,39.7c1.28,.74,1.28,2.58,0,3.32l-13.49,7.79c-2.31,1.33-5.15,1.33-7.46,0l-68.43-39.51c-1.44-.83-1.44-2.91,0-3.74l13.09-7.56c2.33-1.35,5.21-1.35,7.54,0Zm-7.5,82.74l-68.43-39.51c-1.44-.83-1.44-2.91,0-3.74l13.09-7.56c2.33-1.35,5.21-1.35,7.54,0l68.76,39.7c1.28,.74,1.28,2.58,0,3.32l-13.49,7.79c-2.31,1.33-5.16,1.33-7.46,0Zm90.22,61.93c0,1.82-.97,3.51-2.55,4.42l-65.2,37.64c-3.4,1.96-7.66-.49-7.66-4.42v-75.28c0-1.82,.97-3.51,2.55-4.42l17.56-10.14c0,13.06,.03,31.66,.04,40.99,0,2.59,2.8,4.21,5.05,2.92l27.37-15.59c1.69-.96,2.73-2.76,2.73-4.71v-43.93l12.45-7.18c3.4-1.96,7.66,.49,7.66,4.42v75.28Z"/></svg>